<svg width="157" height="55" viewBox="0 0 157 55" fill="none" xmlns="http://www.w3.org/2000/svg">
<path d="M3.42 29V1.424H3.456L18.18 22.304L15.948 21.8L30.636 1.424H30.708V29H25.488V13.196L25.812 15.896L16.848 28.64H16.776L7.56 15.896L8.46 13.412V29H3.42ZM35.5047 20.936C35.5047 19.328 35.8767 17.888 36.6207 16.616C37.3887 15.344 38.4567 14.348 39.8247 13.628C41.1927 12.884 42.7647 12.512 44.5407 12.512C46.3407 12.512 47.9007 12.884 49.2207 13.628C50.5407 14.348 51.5487 15.344 52.2447 16.616C52.9647 17.888 53.3247 19.328 53.3247 20.936C53.3247 22.544 52.9647 23.996 52.2447 25.292C51.5487 26.564 50.5407 27.572 49.2207 28.316C47.9007 29.06 46.3167 29.432 44.4687 29.432C42.7407 29.432 41.1927 29.096 39.8247 28.424C38.4807 27.752 37.4247 26.78 36.6567 25.508C35.8887 24.236 35.5047 22.712 35.5047 20.936ZM40.5807 20.972C40.5807 21.788 40.7487 22.532 41.0847 23.204C41.4207 23.852 41.8767 24.368 42.4527 24.752C43.0287 25.136 43.6767 25.328 44.3967 25.328C45.1887 25.328 45.8727 25.136 46.4487 24.752C47.0247 24.368 47.4687 23.852 47.7807 23.204C48.0927 22.532 48.2487 21.788 48.2487 20.972C48.2487 20.132 48.0927 19.388 47.7807 18.74C47.4687 18.092 47.0247 17.576 46.4487 17.192C45.8727 16.808 45.1887 16.616 44.3967 16.616C43.6767 16.616 43.0287 16.808 42.4527 17.192C41.8767 17.576 41.4207 18.092 41.0847 18.74C40.7487 19.388 40.5807 20.132 40.5807 20.972ZM63.7031 29.432C62.2391 29.432 60.9311 29.096 59.7791 28.424C58.6271 27.728 57.7151 26.732 57.0431 25.436C56.3951 24.14 56.0711 22.604 56.0711 20.828C56.0711 19.052 56.4311 17.54 57.1511 16.292C57.8711 15.044 58.8551 14.096 60.1031 13.448C61.3511 12.8 62.7671 12.476 64.3511 12.476C65.3591 12.476 66.3191 12.632 67.2311 12.944C68.1671 13.256 68.9471 13.736 69.5711 14.384V15.968V0.595999H74.5751V29H69.5351V25.94L69.9311 27.02C69.1151 27.692 68.2031 28.268 67.1951 28.748C66.1871 29.204 65.0231 29.432 63.7031 29.432ZM65.3591 25.184C66.0311 25.184 66.6191 25.1 67.1231 24.932C67.6511 24.74 68.1071 24.476 68.4911 24.14C68.8991 23.78 69.2471 23.336 69.5351 22.808V18.956C69.3431 18.428 69.0431 17.984 68.6351 17.624C68.2511 17.24 67.7711 16.952 67.1951 16.76C66.6431 16.544 66.0311 16.436 65.3591 16.436C64.6151 16.436 63.9191 16.628 63.2711 17.012C62.6471 17.372 62.1431 17.876 61.7591 18.524C61.3751 19.172 61.1831 19.916 61.1831 20.756C61.1831 21.596 61.3751 22.352 61.7591 23.024C62.1431 23.696 62.6471 24.224 63.2711 24.608C63.9191 24.992 64.6151 25.184 65.3591 25.184ZM80.588 2.504H98.66V7.544H85.808V13.196H97.184V18.236H85.808V23.96H99.164V29H80.588V2.504ZM112.593 2.504C114.249 2.504 115.725 2.72 117.021 3.152C118.317 3.56 119.397 4.16 120.261 4.952C121.149 5.72 121.821 6.656 122.277 7.76C122.733 8.84 122.961 10.064 122.961 11.432C122.961 12.512 122.793 13.592 122.457 14.672C122.145 15.752 121.617 16.736 120.873 17.624C120.153 18.512 119.193 19.232 117.993 19.784C116.793 20.312 115.305 20.576 113.529 20.576H109.785V29H104.565V2.504H112.593ZM113.493 15.536C114.285 15.536 114.945 15.404 115.473 15.14C116.001 14.876 116.409 14.54 116.697 14.132C117.009 13.724 117.225 13.304 117.345 12.872C117.489 12.416 117.561 11.996 117.561 11.612C117.561 11.324 117.513 10.964 117.417 10.532C117.345 10.076 117.177 9.62 116.913 9.164C116.649 8.708 116.241 8.324 115.689 8.012C115.161 7.7 114.441 7.544 113.529 7.544H109.785V15.536H113.493ZM118.389 18.776L124.941 29H118.857L112.161 18.92L118.389 18.776ZM152.968 30.08L132.88 11.936L134.428 12.8L134.536 29H129.244V1.46H129.46L149.116 19.532L147.964 19.028L147.856 2.504H153.112V30.08H152.968Z" fill="#fff"/>
<path d="M2.2 34.6V33H11.1V34.6H7.5V47H5.8L5.8 34.6H2.2ZM24.0369 47V45.4H31.0969V47H24.0369ZM24.0369 34.6V33H31.0969V34.6H24.0369ZM24.0369 40.2V38.6H30.6969V40.2H24.0369ZM23.0969 33H24.7969V47H23.0969V33ZM51.293 33H53.293L49.153 39.66L53.593 47H51.593L48.293 41.14L44.893 47H42.893L47.453 39.66L43.393 33H45.393L48.313 38.18L51.293 33ZM64.7922 34.6V33L73.6922 33V34.6H70.0922V47H68.3922V34.6H64.7922ZM85.6891 33H87.3891V47H85.6891V33ZM86.6291 34.6V33H89.4891C90.3957 33 91.2024 33.1733 91.9091 33.52C92.6291 33.8533 93.1957 34.3333 93.6091 34.96C94.0357 35.5867 94.2491 36.3333 94.2491 37.2C94.2491 38.0533 94.0357 38.8 93.6091 39.44C93.1957 40.0667 92.6291 40.5533 91.9091 40.9C91.2024 41.2333 90.3957 41.4 89.4891 41.4H86.6291V39.8H89.4891C90.3957 39.8 91.1291 39.58 91.6891 39.14C92.2624 38.7 92.5491 38.0533 92.5491 37.2C92.5491 36.3333 92.2624 35.6867 91.6891 35.26C91.1291 34.82 90.3957 34.6 89.4891 34.6H86.6291ZM106.78 42.8L107.38 41.2H113.58L114.18 42.8H106.78ZM110.44 36.16L108.08 41.72L107.92 42.08L105.84 47H103.94L110.44 32.3L116.94 47H115.04L113 42.2L112.84 41.8L110.44 36.16ZM128.843 33H130.543V47H128.843V33ZM146.445 40.1H148.345L153.345 47H151.245L146.445 40.1ZM143.945 33H145.645V47H143.945V33ZM144.885 34.5V33H147.745C148.652 33 149.459 33.1733 150.165 33.52C150.885 33.8533 151.452 34.3333 151.865 34.96C152.292 35.5867 152.505 36.3333 152.505 37.2C152.505 38.0533 152.292 38.8 151.865 39.44C151.452 40.0667 150.885 40.5533 150.165 40.9C149.459 41.2333 148.652 41.4 147.745 41.4H144.885V39.9H147.745C148.345 39.9 148.872 39.7933 149.325 39.58C149.792 39.3667 150.152 39.06 150.405 38.66C150.672 38.26 150.805 37.7733 150.805 37.2C150.805 36.6267 150.672 36.14 150.405 35.74C150.152 35.34 149.792 35.0333 149.325 34.82C148.872 34.6067 148.345 34.5 147.745 34.5H144.885Z" fill="#DE9800"/>
</svg>
